<mxfile host="app.diagrams.net" agent="Mozilla/5.0 (Windows NT 10.0; Win64; x64) AppleWebKit/537.36 (KHTML, like Gecko) Chrome/137.0.0.0 Safari/537.36" version="27.1.6">
  <diagram id="todo" name="TodoPage">
    <mxGraphModel dx="1042" dy="527" grid="1" gridSize="10" guides="1" tooltips="1" connect="1" arrows="1" fold="1" page="1" pageScale="1" pageWidth="827" pageHeight="1169" math="0" shadow="0">
      <root>
        <mxCell id="0" />
        <mxCell id="1" parent="0" />
        <mxCell id="2" value="" style="rounded=1;fillColor=#1976d2;strokeColor=#1976d2;" parent="1" vertex="1">
          <mxGeometry x="14" width="800" height="50" as="geometry" />
        </mxCell>
        <mxCell id="3" value="Home   About   To-Do   Login   Register" style="text;html=1;align=left;verticalAlign=middle;fontSize=14;fontColor=#ffffff;" parent="1" vertex="1">
          <mxGeometry x="34" width="760" height="50" as="geometry" />
        </mxCell>
        <mxCell id="4" value="" style="rounded=0;fillColor=#ffffff;strokeColor=#cccccc;" parent="1" vertex="1">
          <mxGeometry x="64" y="70" width="700" height="520" as="geometry" />
        </mxCell>
        <mxCell id="5" value="Мої завдання" style="text;html=1;align=left;verticalAlign=middle;fontSize=20;fontColor=#000000;fontStyle=1;" parent="1" vertex="1">
          <mxGeometry x="74" y="80" width="680" height="40" as="geometry" />
        </mxCell>
        <mxCell id="6" value="Нове завдання" style="rounded=1;fillColor=#ffffff;strokeColor=#888888;fontColor=#888888;" parent="1" vertex="1">
          <mxGeometry x="74" y="130" width="300" height="30" as="geometry" />
        </mxCell>
        <mxCell id="7" value="Опис" style="rounded=1;fillColor=#ffffff;strokeColor=#888888;fontColor=#888888;" parent="1" vertex="1">
          <mxGeometry x="394" y="130" width="300" height="30" as="geometry" />
        </mxCell>
        <mxCell id="8" value="ДОДАТИ" style="rounded=1;fillColor=#1976d2;strokeColor=#1976d2;fontColor=#ffffff;" parent="1" vertex="1">
          <mxGeometry x="704" y="130" width="50" height="30" as="geometry" />
        </mxCell>
        <mxCell id="9" value="" style="ellipse;fillColor=#ffffff;strokeColor=#000000;" parent="1" vertex="1">
          <mxGeometry x="199" y="190" width="20" height="20" as="geometry" />
        </mxCell>
        <mxCell id="10" value="Spisok_changed" style="text;html=1;align=left;verticalAlign=middle;fontSize=14;fontColor=#000000;" parent="1" vertex="1">
          <mxGeometry x="229" y="186" width="400" height="24" as="geometry" />
        </mxCell>
        <mxCell id="11" value="🗑️" style="text;html=1;align=center;verticalAlign=middle;fontSize=16;fontColor=#000000;" parent="1" vertex="1">
          <mxGeometry x="560" y="188" width="20" height="24" as="geometry" />
        </mxCell>
        <mxCell id="12" value="" style="ellipse;fillColor=#ffffff;strokeColor=#000000;" parent="1" vertex="1">
          <mxGeometry x="199" y="230" width="20" height="20" as="geometry" />
        </mxCell>
        <mxCell id="13" value="test" style="text;html=1;align=left;verticalAlign=middle;fontSize=14;fontColor=#000000;" parent="1" vertex="1">
          <mxGeometry x="229" y="226" width="400" height="24" as="geometry" />
        </mxCell>
        <mxCell id="14" value="🗑️" style="text;html=1;align=center;verticalAlign=middle;fontSize=16;fontColor=#000000;" parent="1" vertex="1">
          <mxGeometry x="560" y="226" width="20" height="24" as="geometry" />
        </mxCell>
      </root>
    </mxGraphModel>
  </diagram>
</mxfile>
